<svg xmlns="http://www.w3.org/2000/svg" xmlns:xlink="http://www.w3.org/1999/xlink" width="512" height="512" viewBox="0 0 512 512" fill="none"><g opacity="1"  transform="translate(0 0)  rotate(0)"><mask id="bg-mask-0" fill="white"><use xlink:href="#path_0"></use></mask><g mask="url(#bg-mask-0)" ><g opacity="1"  transform="translate(66 75)  rotate(0)"><path id="路径 1" fill-rule="evenodd" style="fill:#205B75" opacity="1" d="M354.726 278.46L354.726 13.92C354.706 6.24 348.836 0.02 341.586 0L39.4159 0C32.1659 0.02 26.2959 6.24 26.2759 13.92L26.2759 278.46L354.726 278.46Z"></path><path id="路径 2" fill-rule="evenodd" style="fill:#CADBEA" opacity="1" d="M354.72 264.538L26.28 264.538L0 334.158L0 355.038C0 358.878 2.94 361.998 6.57 361.998L374.43 361.998C378.06 361.998 381 358.878 381 355.038L381 334.158L354.72 264.538Z"></path><path id="路径 3" fill-rule="evenodd" style="fill:#ABBBCC" opacity="1" d="M0 334.154L0 355.034C0 358.884 2.94 362.004 6.57 362.004L374.43 362.004C378.06 362.004 381 358.884 381 355.034L381 334.154L0 334.154Z"></path><path id="路径 4" fill-rule="evenodd" style="fill:#114559" opacity="1" d="M59.1217 27.8462C55.4917 27.8462 52.5517 30.9662 52.5517 34.8062L52.5517 229.726C52.5517 233.576 55.4917 236.696 59.1217 236.696L321.882 236.696C325.502 236.696 328.452 233.576 328.452 229.726L328.452 34.8062C328.452 30.9662 325.502 27.8462 321.882 27.8462L290.812 27.8462L59.1217 27.8462Z"></path><path id="路径 5" fill-rule="evenodd" style="fill:#E1EAF4" opacity="1" d="M262.761 334.156L251.271 303.726C250.271 301.086 247.861 299.346 245.171 299.346L135.831 299.346C133.141 299.346 130.731 301.086 129.731 303.726L118.241 334.156L262.761 334.156Z"></path><g opacity="1"  transform="translate(72.260009765625 55.7236328125)  rotate(0)"><path id="路径 6" fill-rule="evenodd" style="fill:#FFFFFF" opacity="1" d="M19.71,41.74c-1.75,0 -3.42,-0.74 -4.65,-2.04l-13.14,-13.92c-2.56,-2.72 -2.56,-7.13 0,-9.85l13.14,-13.92c2.58,-2.64 6.68,-2.6 9.21,0.08c2.53,2.69 2.57,7.03 0.08,9.76l-8.49,9l8.49,9c1.88,2 2.44,4.99 1.42,7.59c-1.01,2.6 -3.41,4.3 -6.06,4.3zM80.75,39.7c-2.56,-2.72 -2.56,-7.13 0,-9.85l8.49,-9l-8.49,-9c-2.49,-2.73 -2.45,-7.07 0.08,-9.76c2.53,-2.68 6.63,-2.72 9.21,-0.08l13.14,13.92c2.56,2.72 2.56,7.13 0,9.85l-13.14,13.92c-2.57,2.72 -6.72,2.72 -9.29,0zM43.05,41.04c-1.56,-0.82 -2.75,-2.27 -3.3,-4.02c-0.56,-1.76 -0.43,-3.67 0.35,-5.32l13.14,-27.85c1.62,-3.44 5.57,-4.83 8.82,-3.12c3.24,1.72 4.56,5.91 2.94,9.35l-13.14,27.84c-0.78,1.66 -2.14,2.91 -3.8,3.5c-1.65,0.58 -3.46,0.45 -5.01,-0.38z"></path></g><path id="路径 7" fill-rule="evenodd" style="fill:#E5BB33" opacity="1" d="M105.108 111.385L85.3976 111.385C81.7676 111.385 78.8276 114.505 78.8276 118.345C78.8276 122.185 81.7676 125.305 85.3976 125.305L105.108 125.305C108.728 125.305 111.668 122.185 111.668 118.345C111.668 114.505 108.728 111.385 105.108 111.385Z"></path><path id="路径 8" fill-rule="evenodd" style="fill:#EB6374" opacity="1" d="M131.38 125.305L183.93 125.305C187.56 125.305 190.5 122.185 190.5 118.345C190.5 114.505 187.56 111.385 183.93 111.385L131.38 111.385C127.75 111.385 124.81 114.505 124.81 118.345C124.81 122.185 127.75 125.305 131.38 125.305Z"></path><path id="路径 9" fill-rule="evenodd" style="fill:#E5BB33" opacity="1" d="M157.656,146.191c0,3.84 -2.941,6.96 -6.57,6.96h-52.5505c-3.63,0 -6.57,-3.12 -6.57,-6.96c0,-3.84 2.94,-6.96 6.57,-6.96h52.5505c3.629,0 6.57,3.12 6.57,6.96zM98.5355,167.081h32.8405c3.63,0 6.57,3.12 6.57,6.96c0,3.84 -2.94,6.96 -6.57,6.96h-32.8405c-3.63,0 -6.57,-3.12 -6.57,-6.96c0,-3.84 2.94,-6.96 6.57,-6.96z"></path><path id="路径 10" fill-rule="evenodd" style="fill:#82ECFF" opacity="1" d="M282.47 180.997C286.09 180.997 289.03 177.877 289.03 174.037C289.03 170.197 286.09 167.077 282.47 167.077L262.76 167.077C259.13 167.077 256.19 170.197 256.19 174.037C256.19 177.877 259.13 180.997 262.76 180.997L282.47 180.997Z"></path><path id="路径 11" fill-rule="evenodd" style="fill:#EB6374" opacity="1" d="M157.656 180.997L236.486 180.997C240.106 180.997 243.056 177.877 243.056 174.037C243.056 170.197 240.106 167.077 236.486 167.077L157.656 167.077C154.026 167.077 151.086 170.197 151.086 174.037C151.086 177.877 154.026 180.997 157.656 180.997Z"></path><path id="路径 12" fill-rule="evenodd" style="fill:#E5BB33" opacity="1" d="M98.5355 194.923C94.9055 194.923 91.9655 198.043 91.9655 201.883C91.9655 205.723 94.9055 208.843 98.5355 208.843L111.676 208.843C115.296 208.843 118.246 205.723 118.246 201.883C118.246 198.043 115.296 194.923 111.676 194.923L98.5355 194.923Z"></path><path id="路径 13" fill-rule="evenodd" style="fill:#82ECFF" opacity="1" d="M210.208 194.923C206.578 194.923 203.638 198.043 203.638 201.883C203.638 205.723 206.578 208.843 210.208 208.843L282.468 208.843C286.088 208.843 289.038 205.723 289.038 201.883C289.038 198.043 286.088 194.923 282.468 194.923L210.208 194.923Z"></path><path id="路径 14" fill-rule="evenodd" style="fill:#EB6374" opacity="1" d="M137.949 194.923C134.319 194.923 131.379 198.043 131.379 201.883C131.379 205.723 134.319 208.843 137.949 208.843L183.929 208.843C187.559 208.843 190.499 205.723 190.499 201.883C190.499 198.043 187.559 194.923 183.929 194.923L137.949 194.923Z"></path></g></g></g><defs><rect id="path_0" x="0" y="0" width="512" height="512" /></defs></svg>