<svg xmlns="http://www.w3.org/2000/svg" xmlns:xlink="http://www.w3.org/1999/xlink" width="331.8039855957031" height="330" viewBox="0 0 331.8039855957031 330" fill="none"><g opacity="1"  transform="translate(0.853424072265625 0)  rotate(0)"><path id="矩形 1" fill-rule="evenodd" style="fill:#FFFFFF" opacity="1" d="M0 330L330 330L330 0L0 0L0 330Z"></path><g opacity="1"  transform="translate(0.0500030517578125 27.810001373291016)  rotate(0)"><path id="路径 1" fill-rule="evenodd" style="fill:#0D1117" opacity="1" d="M297.144 106.877C297.144 106.877 300.37 85.2072 300.066 70.0896C297.017 32.2719 289.525 27.231 289.525 27.231C282.241 22.3296 260.904 28.8381 247.448 34.686C233.995 40.5479 216.2 52.4149 216.2 52.4149L297.144 106.877Z"></path><path  id="路径 1" style="fill:#0D1117; opacity:1;" d="M218.927,50.0374c2.508,-1.6078 5.041,-3.18357 7.599,-4.7273c8.192,-4.9436 15.10067,-8.64093 20.726,-11.092c3.628,-1.57667 7.38267,-3.02183 11.264,-4.3355c4.34133,-1.46947 8.4,-2.6199 12.176,-3.4513c4.28533,-0.94353 7.97533,-1.42117 11.07,-1.4329c3.54,-0.01347 6.21633,0.5895 8.029,1.8089v0.0002c0.106,0.07133 0.241,0.18953 0.405,0.3546c0.302,0.30333 0.61767,0.68873 0.947,1.1562c1.026,1.45513 2.01633,3.4513 2.971,5.9885c1.32467,3.52053 2.49233,7.8685 3.503,13.0439c1.26,6.4526 2.24,14.02043 2.94,22.7035l0.002,0.0158v0.0158c0.12667,6.3212 -0.32333,14.36377 -1.35,24.1277c-0.32067,3.0486 -0.68,6.0871 -1.078,9.1155c-0.19867,1.51467 -0.36533,2.725 -0.5,3.631l-0.115,0.77l-82.219,-55.3206l0.632,-0.4214c0.744,-0.49613 1.74333,-1.14633 2.998,-1.9506zM296.769,106.022c0.11133,-0.782 0.24,-1.72933 0.386,-2.842c0.39667,-3.0196 0.75467,-6.04923 1.074,-9.0889c0.44733,-4.2546 0.78633,-8.22627 1.017,-11.915c0.28733,-4.59773 0.39667,-8.62007 0.328,-12.067c-0.69667,-8.6372 -1.671,-16.16083 -2.923,-22.5709c-0.99933,-5.11787 -2.151,-9.40973 -3.455,-12.8756c-0.92333,-2.454 -1.87233,-4.37247 -2.847,-5.7554c-0.296,-0.41993 -0.57467,-0.76107 -0.836,-1.0234c-0.11733,-0.11807 -0.20167,-0.19447 -0.253,-0.2292v-0.0001c-1.64533,-1.107 -4.13933,-1.65417 -7.482,-1.6415c-3.02667,0.01153 -6.64933,0.48177 -10.868,1.4107c-3.742,0.82393 -7.76733,1.96503 -12.076,3.4233c-3.856,1.30513 -7.58567,2.74073 -11.189,4.3068c-5.586,2.434 -12.45667,6.11183 -20.612,11.0335c-2.55067,1.53927 -5.07667,3.11043 -7.578,4.7135c-0.922,0.591 -1.705,1.0981 -2.349,1.5213z"></path><path id="路径 1" fill-rule="evenodd" style="fill:#0D1117" opacity="1" d="M113.797 52.4169L98.4856 42.9504L82.3295 50.9177L80.0301 33.624C79.1921 33.2844 78.3404 32.9419 77.4805 32.6049C75.8173 31.9652 74.0915 31.3194 72.3294 30.7101C68.8976 29.5256 65.333 28.4305 61.8574 27.5526C52.8989 25.3043 44.5206 24.5087 40.4717 27.2329C33.1872 32.1343 30.2474 54.9768 29.9307 70.0915C29.6276 85.2091 32.8532 106.879 32.8532 106.879L113.797 52.4169Z"></path><path  id="路径 1" style="fill:#0D1117; opacity:1;" d="M32.3664,106.962c-0.13487,-0.906 -0.30173,-2.11633 -0.5006,-3.631c-0.3974,-3.02787 -0.75647,-6.06637 -1.0772,-9.1155c-1.027,-9.7644 -1.4771,-17.80717 -1.3503,-24.1283c0.0854,-4.07507 0.3383,-8.2167 0.7587,-12.4249c0.47033,-4.7072 1.1068,-9.01677 1.9094,-12.9287c0.91093,-4.43953 1.9906,-8.1263 3.239,-11.0603c1.4282,-3.3566 3.04847,-5.6446 4.8608,-6.864c1.99987,-1.3456 5.04707,-1.94167 9.1416,-1.7882c3.53387,0.1324 7.7448,0.81197 12.6328,2.0387c3.30373,0.83447 6.80743,1.89083 10.5111,3.1691c1.49147,0.5158 3.21553,1.15003 5.1722,1.9027l2.8155,1.1253l2.2477,16.9051l15.7905,-7.7869l15.5364,9.6059l0.67,0.4142l-82.2431,55.3368zM98.4536,43.5258l-16.5216,8.1475l-2.3511,-17.6822l-2.2838,-0.9129c-1.93887,-0.74573 -3.64887,-1.37473 -5.13,-1.887c-3.67773,-1.26927 -7.15537,-2.31783 -10.4329,-3.1457c-4.82273,-1.21033 -8.9678,-1.88047 -12.4352,-2.0104c-3.8848,-0.1456 -6.7387,0.3949 -8.5617,1.6215c-1.6454,1.10707 -3.14223,3.24497 -4.4905,6.4137c-1.22093,2.86953 -2.27983,6.48973 -3.1767,10.8606c-0.7954,3.87667 -1.42647,8.1507 -1.8932,12.8221c-0.41773,4.18087 -0.669,8.29513 -0.7538,12.3428c-0.12587,6.27707 0.32243,14.27617 1.3449,23.9973c0.31973,3.04027 0.67777,6.0699 1.0741,9.0889c0.14607,1.11333 0.27473,2.06067 0.386,2.842l79.6409,-53.5854z"></path></g><path id="减去顶层" fill-rule="evenodd" style="fill:#0D1117" opacity="1" d="M20.2704,180c0,-60.75 64.82,-110 144.7796,-110c79.95,0 144.77,49.25 144.77,110c0,60.75 -64.82,110 -144.77,110c-79.9596,0 -144.7796,-49.25 -144.7796,-110zM199.38,184.887c7.291,20.756 29.448,31.463 49.481,23.908c20.042,-7.558 30.372,-30.515 23.081,-51.271zM81.228,208.793c20.042,7.558 42.199,-3.148 49.49,-23.904l-72.5619,-27.364c-7.2916,20.757 3.0389,43.714 23.0719,51.268z"></path></g></svg>