<svg xmlns="http://www.w3.org/2000/svg" xmlns:xlink="http://www.w3.org/1999/xlink" width="512" height="512" viewBox="0 0 512 512" fill="none"><g opacity="1"  transform="translate(0 0)  rotate(0)"><mask id="bg-mask-0" fill="white"><use xlink:href="#path_0"></use></mask><g mask="url(#bg-mask-0)" ><g opacity="1"  transform="translate(0 0) rotate(0)"><path id="路径 1" fill-rule="evenodd" style="fill:#DB3916" opacity="1" d="M388.378 286.908L450.188 357.468C467.258 357.468 481.098 343.638 481.098 326.568L481.098 247.248C481.098 230.178 467.258 216.338 450.188 216.338L388.378 286.908Z"></path><path id="路径 2" fill-rule="evenodd" style="fill:#FC5A37" opacity="1" d="M30.9055 247.248L30.9055 326.568C30.9055 343.638 44.7455 357.468 61.8155 357.468L123.626 286.908L61.8155 216.338C44.7455 216.338 30.9055 230.178 30.9055 247.248Z"></path><path id="路径 3" fill-rule="evenodd" style="fill:#487ED2" opacity="1" d="M296.12 30.9054L256 139.075L364.17 77.2654L335.56 34.3454C334.12 32.1954 331.71 30.9054 329.13 30.9054L296.12 30.9054Z"></path><path id="路径 4" fill-rule="evenodd" style="fill:#73A7E6" opacity="1" d="M176.441,34.3454c1.43,-2.15 3.85,-3.44 6.43,-3.44h113.25l30.9,46.36l-71.02,61.8096l-108.17,-61.8096zM388.381,77.2654c34.13,0 61.81,27.6696 61.81,61.8096v280.21c0,34.14 -27.68,61.81 -61.81,61.81h-30.91v-403.8296z"></path><path id="路径 5" fill-rule="evenodd" style="fill:#A8CFFF" opacity="1" d="M419.281 139.074C419.281 104.934 391.611 77.2635 357.471 77.2635L123.621 77.2635C89.4808 77.2635 61.8108 104.934 61.8108 139.074L61.8108 419.284C61.8108 453.424 89.4808 481.094 123.621 481.094L357.471 481.094C391.611 481.094 419.281 453.424 419.281 419.284L419.281 139.074Z"></path><path id="路径 6" fill-rule="evenodd" style="fill:#071E61" opacity="1" d="M357.473 171.01L357.473 450.19L388.383 450.19C405.443 450.19 419.283 436.35 419.283 419.28L419.283 201.92C419.283 184.85 405.443 171.01 388.383 171.01L357.473 171.01Z"></path><path id="路径 7" fill-rule="evenodd" style="fill:#12398F" opacity="1" d="M388.376 201.92C388.376 184.85 374.546 171.01 357.476 171.01L123.626 171.01C106.556 171.01 92.7163 184.85 92.7163 201.92L92.7163 419.28C92.7163 436.35 106.556 450.19 123.626 450.19L357.476 450.19C374.546 450.19 388.376 436.35 388.376 419.28L388.376 201.92Z"></path><path id="路径 8" fill-rule="evenodd" style="fill:#487ED2" opacity="1" d="M302.363 357.473L271.453 380.653L302.363 403.833L348.713 403.833L348.713 357.473L302.363 357.473Z"></path><path id="路径 9" fill-rule="evenodd" style="fill:#73A7E6" opacity="1" d="M256.004 357.473L225.094 380.653L256.004 403.833L302.354 403.833L302.354 357.473L256.004 357.473Z"></path><path id="路径 10" fill-rule="evenodd" style="fill:#A8CFFF" opacity="1" d="M209.646 357.473L178.736 380.653L209.646 403.833L255.996 403.833L255.996 357.473L209.646 357.473Z"></path><path id="路径 11" fill-rule="evenodd" style="fill:#73A7E6" opacity="1" d="M163.284 403.833L209.644 403.833L209.644 357.473L163.284 357.473L163.284 403.833Z"></path><path id="路径 12" fill-rule="evenodd" style="fill:#FFC85F" opacity="1" d="M170.495 311.118C196.385 311.118 217.365 290.128 217.365 264.238C217.365 238.358 196.385 217.368 170.495 217.368L170.495 311.118Z"></path><path id="路径 13" fill-rule="evenodd" style="fill:#FFE278" opacity="1" d="M170.492 217.368C144.612 217.368 123.622 238.358 123.622 264.238C123.622 290.128 144.612 311.118 170.492 311.118C179.312 311.118 186.462 290.128 186.462 264.238C186.462 238.358 179.312 217.368 170.492 217.368Z"></path><path id="路径 14" fill-rule="evenodd" style="fill:#FFC85F" opacity="1" d="M341.505 311.118C367.395 311.118 388.375 290.128 388.375 264.238C388.375 238.358 367.395 217.368 341.505 217.368L341.505 311.118Z"></path><path id="路径 15" fill-rule="evenodd" style="fill:#FFE278" opacity="1" d="M341.502 217.368C315.622 217.368 294.632 238.358 294.632 264.238C294.632 290.128 315.622 311.118 341.502 311.118C350.322 311.118 357.472 290.128 357.472 264.238C357.472 238.358 350.322 217.368 341.502 217.368Z"></path><g opacity="1"  transform="translate(0 0)  rotate(0)"><path id="路径 16" fill-rule="evenodd" style="fill:#12398F" opacity="1" d="M7.73,334.297c-4.27,0 -7.73,-3.47 -7.73,-7.73v-249.2998c0,-4.27 3.46,-7.73 7.73,-7.73c4.26,0 7.72,3.46 7.72,7.73v249.2998c0,4.26 -3.46,7.73 -7.72,7.73zM504.27,334.297c-4.26,0 -7.72,-3.47 -7.72,-7.73v-249.2998c0,-4.27 3.46,-7.73 7.72,-7.73c4.27,0 7.73,3.46 7.73,7.73v249.2998c0,4.26 -3.46,7.73 -7.73,7.73z"></path></g></g></g></g><defs><rect id="path_0" x="0" y="0" width="512" height="512" /></defs></svg>
