<svg xmlns="http://www.w3.org/2000/svg" xmlns:xlink="http://www.w3.org/1999/xlink" width="512" height="512" viewBox="0 0 512 512" fill="none"><g opacity="1"  transform="translate(0 0)  rotate(0)"><mask id="bg-mask-0" fill="white"><use xlink:href="#path_0"></use></mask><g mask="url(#bg-mask-0)" ><g opacity="1"  transform="translate(1 -1)  rotate(0)"><path id="矩形 1" fill-rule="evenodd" style="fill:#FFFFFF" opacity="1" d="M0 512L512 512L512 0L0 0L0 512Z"></path><path id="路径 1" fill-rule="evenodd" style="fill:#94CCD4" opacity="1" d="M399.017 119.56C364.247 90.2101 266.577 86.8501 266.577 86.8501L195.787 87.2601C195.257 87.4801 194.617 87.3301 194.097 87.5501C124.717 117.66 79.6868 189.01 79.6868 271.94C79.6868 382.25 161.937 457.31 272.247 457.31C305.407 457.31 334.707 463.92 362.227 449.62C426.267 416.35 469.997 349.41 469.997 272.26C469.997 211.01 442.427 156.2 399.017 119.56Z"></path><path id="路径 2" fill-rule="evenodd" style="fill:#B7E546" opacity="1" d="M399.018,119.561c-20.31,13.28 -42.11,26.46 -50.29,28.25c-22.43,6.56 -51.63,-7.34 -57.63,25.75c-0.17,6.38 -0.73,12.45 -1.69,18.11c-1.07,6.32 -3.42,12.27 -6.83,17.55c-3.41,5.29 -12.48,6.83 -17.77,10.45c-14.54,10 -26.36,10.6 -42.02,2.44c-0.39,-0.21 -0.8,-0.42 -1.21,-0.64c-26.08,-12.78 -41.4,-42.18 -14.36,-63.67c17.77,-14.67 15.08,-40.56 2.66,-56.73l-7.47,-8.6499c5.8,-2.4 3.44,-9.39 9.5,-11.24c18.46,-5.63 38.05,-8.66 58.35,-8.66c49.07,0 93.99,17.69 128.76,47.0399zM425.168,222.821c0,38.07 -29.55,63.58 -51.29,63.58c-16.92,0 -28.79,-14.01 -29.79,-31.39c0.01,0.01 0.01,1.24 0.02,1.24c-0.28,-7.01 2.48,-13.86 7.39,-18.86c27.74,-27.68 14.86,-47.83 27.91,-64.06c13.77,-12.65 17.24,-5.82 27.25,5.64c11.74,11.58 18.4,27.36 18.51,43.85z"></path><path id="路径 3" fill-rule="evenodd" style="fill:#ABD641" opacity="1" d="M387.348 170.584C389.048 169.014 390.728 167.804 392.388 166.874C385.508 163.384 377.948 163.344 370.088 170.584C357.038 186.804 373.108 208.434 345.378 236.104C340.458 241.114 337.698 247.954 337.978 254.974C337.968 254.964 337.968 254.954 337.958 254.954C338.958 272.344 356.958 286.404 373.878 286.404C376.618 286.404 379.488 285.995 382.398 285.204C368.528 281.454 356.048 269.344 355.228 254.954C355.228 254.954 355.228 254.964 355.238 254.974C354.968 247.954 357.728 241.114 362.638 236.104C390.368 208.434 374.298 186.804 387.348 170.584Z"></path><path id="路径 4" fill-rule="evenodd" style="fill:#DC4955" opacity="1" d="M428.824 43.0009L302.944 43.0009L298.734 48.6509C290.384 48.6509 287.074 57.4509 287.074 65.7909L288.894 159.321C288.894 167.661 295.664 174.431 304.004 174.431L316.084 174.431C321.644 174.431 326.154 178.941 326.154 184.501L322.624 197.061C322.624 201.181 327.284 203.551 330.614 201.141L368.244 175.011C369.964 173.771 372.034 173.101 374.154 173.101L419.754 173.441C428.094 173.441 437.584 172.181 437.584 163.841L443.934 157.811L443.934 58.1109C443.934 49.7609 437.174 43.0009 428.824 43.0009Z"></path><path id="路径 5" fill-rule="evenodd" style="fill:#D82F3C" opacity="1" d="M374.769 157.81C368.399 157.8 362.189 159.81 357.039 163.55L341.189 175.04C339.689 176.13 337.599 175.61 336.729 173.97C331.669 164.37 321.579 157.81 309.989 157.81L304.959 157.81C303.839 157.81 302.939 156.91 302.939 155.8L302.939 43L297.909 43C289.559 43 282.799 49.76 282.799 58.11L282.799 162.85C282.799 171.19 289.559 177.95 297.909 177.95L309.989 177.95C315.549 177.95 320.059 182.46 320.059 188.02L320.059 205.35C320.059 209.47 324.729 211.84 328.049 209.42L368.869 179.87C370.579 178.63 372.639 177.95 374.769 177.95L428.829 177.95C437.169 177.95 443.939 171.19 443.939 162.85L443.939 157.81L374.769 157.81Z"></path><path id="路径 6" fill-rule="evenodd" style="fill:#6FBBC6" opacity="1" d="M113.201 250.614C113.201 183.534 143.961 124.724 194.101 87.5537C121.571 117.494 70.5207 188.914 70.5207 272.264C70.5207 306.224 79.0007 338.214 93.9507 366.214C93.9507 366.214 141.421 403.804 165.421 421.474C198.531 445.844 262.861 461.554 262.861 461.554C262.861 461.554 334.451 463.984 361.901 449.774C347.391 452.964 332.581 454.564 317.731 454.554C204.781 454.554 113.201 363.244 113.201 250.614Z"></path><path id="路径 7" fill-rule="evenodd" style="fill:#B7E546" opacity="1" d="M317.921 372.917C318.351 362.797 317.011 352.637 313.681 343.067C313.631 342.937 313.591 342.817 313.551 342.687C311.861 337.947 309.331 333.557 306.181 329.647C297.481 318.847 278.921 290.647 269.841 286.697C252.511 275.977 229.041 283.957 219.771 301.557C211.721 321.917 209.501 349.817 188.481 360.797C175.911 367.617 157.801 366.077 148.241 354.797C131.651 333.247 108.421 354.087 93.9707 366.207C99.7107 376.937 123.151 384.807 130.731 394.317C162.171 433.817 190.161 449.047 236.241 457.317C279.101 465.097 323.071 469.927 361.751 449.837C361.911 449.757 362.061 449.677 362.221 449.597C346.171 427.247 316.651 402.597 317.921 372.917Z"></path><path id="路径 8" fill-rule="evenodd" style="fill:#ABD641" opacity="1" d="M317.733 454.553C239.493 454.553 171.513 410.743 137.113 346.373C122.333 341.573 105.403 356.613 93.9733 366.203C124.353 423.993 184.353 464.543 249.363 470.903L249.363 470.913C287.833 474.943 327.483 467.663 361.813 449.793C347.623 452.913 332.873 454.553 317.733 454.553Z"></path><path id="路径 9" fill-rule="evenodd" style="fill:#FFBF54" opacity="1" d="M391.251 261.756L265.371 261.756L261.161 267.406C252.811 267.406 249.501 276.206 249.501 284.546L251.321 378.076C251.321 386.416 258.091 393.186 266.431 393.186L278.511 393.186C284.071 393.186 288.581 397.696 288.581 403.256L285.051 415.816C285.051 419.936 289.711 422.306 293.041 419.896L330.671 393.766C332.391 392.526 334.461 391.856 336.581 391.856L382.181 392.196C390.521 392.196 400.011 390.936 400.011 382.596L406.361 376.566L406.361 276.866C406.361 268.516 399.601 261.756 391.251 261.756Z"></path><path id="路径 10" fill-rule="evenodd" style="fill:#FFA442" opacity="1" d="M337.196 376.565C330.826 376.555 324.616 378.565 319.466 382.305L303.616 393.795C302.116 394.885 300.026 394.365 299.156 392.725C294.096 383.125 284.006 376.565 272.416 376.565L267.386 376.565C266.266 376.565 265.366 375.665 265.366 374.555L265.366 261.755L260.336 261.755C251.986 261.755 245.226 268.515 245.226 276.865L245.226 381.605C245.226 389.945 251.986 396.705 260.336 396.705L272.416 396.705C277.976 396.705 282.486 401.215 282.486 406.775L282.486 424.105C282.486 428.225 287.156 430.595 290.476 428.175L331.296 398.625C333.006 397.385 335.066 396.705 337.196 396.705L391.256 396.705C399.596 396.705 406.366 389.945 406.366 381.605L406.366 376.565L337.196 376.565Z"></path><path id="路径 11" fill-rule="evenodd" style="fill:#FAF8F8" opacity="1" d="M402.502,92.4202h-13.42c-3.06,13.5898 -9.15,26.3198 -17.82,37.2198c6.66,6.36 14.36,11.51 22.77,15.26l8.92,3.97c2.79,1.24 4.33,4.27 3.7,7.26c-0.64,2.99 -3.28,5.13 -6.34,5.13c-0.91,0 -1.8,-0.19 -2.63,-0.56l-8.92,-3.98c-9.68,-4.3 -18.55,-10.23 -26.24,-17.51c-7.69,7.28 -16.56,13.21 -26.24,17.51l-8.92,3.98c-0.86,0.38 -1.75,0.56 -2.63,0.56c-3.06,0 -5.7,-2.14 -6.34,-5.13c-0.64,-2.99 0.9,-6.02 3.7,-7.26l8.92,-3.97c8.4,-3.75 16.11,-8.9 22.76,-15.26c-8.66,-10.9 -14.75,-23.63 -17.82,-37.2198h-13.42c-3.57,0 -6.47,-2.9 -6.47,-6.47c0,-3.58 2.9,-6.48 6.47,-6.48h33.51v-11.01c0,-3.57 2.9,-6.47 6.48,-6.47c3.57,0 6.47,2.9 6.47,6.47v11.01h33.51c3.58,0 6.48,2.9 6.48,6.48c0,3.57 -2.9,6.47 -6.48,6.47zM375.752,92.4202h-26.47c2.61,9.8798 7.11,19.1698 13.24,27.3598c6.13,-8.19 10.62,-17.48 13.23,-27.3598zM375.382,289.44c3.57,0 6.48,2.9 6.48,6.48c-0.01,3.57 -2.91,6.47 -6.48,6.47h-8.58v59.99c0,3.57 -2.9,6.47 -6.48,6.47c-3.57,0 -6.47,-2.9 -6.47,-6.47v-26.76h-25.75c1.5,3.07 2.35,6.51 2.35,10.14c0,12.74 -10.36,23.09 -23.09,23.09c-10.92,0 -24.85,-1.39 -35.73,-12.28c-2.53,-2.53 -2.53,-6.62 0,-9.15c2.52,-2.53 6.62,-2.53 9.15,0c7.48,7.48 17.63,8.49 26.58,8.49c5.69,0 10.14,-4.46 10.14,-10.15c0,-5.59 -4.55,-10.14 -10.14,-10.14h-20.77c-3.57,0 -6.48,-2.9 -6.48,-6.47c0,-3.58 2.91,-6.48 6.48,-6.48h20.77c5.59,0 10.14,-4.55 10.14,-10.14c0,-5.59 -4.55,-10.14 -10.14,-10.14h-18.69c-3.58,0 -6.48,-2.9 -6.48,-6.48c0,-3.57 2.9,-6.47 6.48,-6.47h18.69c12.73,0 23.09,10.36 23.09,23.09c0,3.52 -0.8,6.99 -2.35,10.14h25.75v-20.28h-8.59c-3.57,0 -6.47,-2.9 -6.47,-6.48c0,-3.57 2.9,-6.47 6.47,-6.47z"></path><path id="路径 12" fill-rule="evenodd" style="fill:#ABD641" opacity="1" d="M222.056 96.209C222.056 96.209 217.276 89.339 211.906 81.179C205.876 83.019 199.926 85.139 194.096 87.549L201.576 96.209C213.996 112.379 220.556 140.969 202.786 155.649C189.996 165.809 187.126 179.029 190.426 191.489C198.626 182.409 210.196 171.819 213.526 169.169L213.776 168.959C235.496 151.029 234.926 120.179 222.056 96.209Z"></path><path id="路径 13" fill-rule="evenodd" style="fill:#ABD641" opacity="1" d="M280.822 209.791C265.621 219.791 245.911 220.911 229.542 212.751C229.132 212.551 228.712 212.331 228.282 212.121C207.402 202.331 191.892 179.431 198.462 159.591C177.822 181.201 194.612 213.031 219.161 225.061C219.562 225.281 219.972 225.491 220.372 225.701C236.032 233.861 254.892 232.741 269.432 222.741C274.661 219.151 279.132 214.561 282.582 209.221C282.832 208.841 283.072 208.451 283.302 208.051C282.501 208.661 281.672 209.241 280.822 209.791Z"></path><g opacity="1"  transform="translate(185.267333984375 449.77880859375)  rotate(0)"><path id="路径 14" fill-rule="evenodd" style="fill:#94CCD4" opacity="1" d="M0.590122 3.54C0.390122 3.45 0.200122 3.36 0.00012207 3.27C0.200122 3.36 0.390122 3.45 0.590122 3.54ZM176.55 0.02C176.52 0.03 176.51 0.04 176.48 0.05C172.96 1.88 169.39 3.6 165.76 5.21C169.45 3.58 173.06 1.85 176.63 0C176.6 0.01 176.58 0.01 176.55 0.02Z"></path></g><path id="路径 15" fill-rule="evenodd" style="fill:#FAF8F8" opacity="1" d="M49.2212 248.127C49.2212 256.637 56.1512 263.527 64.7012 263.527L113.301 265.117C115.471 265.117 117.591 265.797 119.351 267.067L152.521 295.117C155.941 297.577 160.711 295.147 160.711 290.957L162.811 277.397C162.811 271.727 167.431 267.127 173.131 267.127L189.171 267.067C197.721 267.067 206.141 265.037 206.141 256.537L206.141 149.737C206.141 141.237 199.211 134.337 190.661 134.337L56.4812 134.337C47.9312 134.337 47.9512 152.757 47.9512 161.257L49.2212 248.127Z"></path><path id="路径 16" fill-rule="evenodd" style="fill:#AAD8DE" opacity="1" d="M131.119,163.064l29.17,76.6c0.76,1.99 0.49,4.22 -0.72,5.98c-1.21,1.75 -3.2,2.8 -5.33,2.8c-2.69,0 -5.09,-1.66 -6.05,-4.17l-5.68,-14.91h-37.93l-5.6202,14.89c-1.26,3.34 -5,5.03 -8.34,3.77c-3.34,-1.26 -5.03,-5 -3.77,-8.34l28.9002,-76.6c1.22,-3.19 4.28,-5.29 7.69,-5.28h0.01c3.34,0 6.35,2.02 7.61,5.12zM137.579,216.414l-14.12,-37.08l-13.99,37.08z"></path><path id="路径 17" fill-rule="evenodd" style="fill:#F0E9E6" opacity="1" d="M178.27 254.674C166.6 254.674 156.6 261.944 152.57 272.194C151.75 274.314 149.17 275.124 147.33 273.794L128.03 259.884C123.34 256.504 117.68 254.674 111.88 254.674L62.58 254.674C60.2 254.674 58.26 252.734 58.26 250.354L58.26 134.334L56.49 134.334C47.93 134.334 41 141.234 41 149.744L41 256.534C41 265.034 47.93 271.934 56.49 271.934L111.88 271.934C114.06 271.934 116.18 272.614 117.94 273.884L159.76 304.024C163.17 306.484 167.96 304.064 167.96 299.874L167.96 282.204C167.96 276.534 172.57 271.934 178.27 271.934L190.66 271.934C199.21 271.934 206.14 265.034 206.14 256.534L206.14 254.674L178.27 254.674Z"></path></g></g></g><defs><rect id="path_0" x="0" y="0" width="512" height="512" /></defs></svg>