<svg xmlns="http://www.w3.org/2000/svg" xmlns:xlink="http://www.w3.org/1999/xlink" width="468" height="468" viewBox="0 0 468 468" fill="none"><defs><linearGradient id="linear_0" x1="50%" y1="100%" x2="49.999999999999986%" y2="-5.551115123125782e-15%" gradientUnits="objectBoundingBox"><stop offset="0" stop-color="#E6E6E6" stop-opacity="1" /><stop offset="1" stop-color="#EFEFEF" stop-opacity="1" /></linearGradient></defs><g opacity="1" transform="translate(0 0)  rotate(0 234 234)"><path id="app背景" fill-rule="evenodd" fill="url(#linear_0)" transform="translate(0 0)  rotate(0 234 234)" opacity="1" d="M100,468L368,468C423.23,468 468,423.23 468,368L468,100C468,44.77 423.23,0 368,0L100,0C44.77,0 0,44.77 0,100L0,368C0,423.23 44.77,468 100,468Z " /><path id="减去顶层" fill-rule="evenodd" style="fill:#0D1117" transform="translate(80 77)  rotate(0 150 110)" opacity="1" d="M0 110C0 49.25 67.16 0 150 0C232.84 0 300 49.25 300 110C300 170.75 232.84 220 150 220C67.16 220 0 170.75 0 110Z M114.428 114.887C106.873 135.645 83.9174 146.349 63.1596 138.794C42.4018 131.239 31.6975 108.283 39.2527 87.5253L114.428 114.887Z M260.747 87.5253C268.303 108.283 257.598 131.239 236.84 138.794C216.083 146.349 193.127 135.645 185.572 114.887L260.747 87.5253Z " /><g opacity="1" transform="translate(59.05000000000001 34.81)  rotate(0 170.95349824149082 53.440406999045855)"><path id="路径 1" fill-rule="evenodd" style="fill:#0D1117" transform="translate(232.9534982414908 22.19040699904586)  rotate(33 50 31.25)" opacity="1" d="M100,62.5C100,62.5 91,42.5 82.5,30C59.25,0 50,0 50,0C41,0 26,17.5 17.5,30C9,42.5 0,62.5 0,62.5L100,62.5Z " /><path  id="路径 1" style="stroke:#0D1117; stroke-width:1; stroke-opacity:1; stroke-dasharray:0 0" transform="translate(232.9534982414908 22.19040699904586)  rotate(33 50 31.25)" d="M100,62.5C100,62.5 91,42.5 82.5,30C59.25,0 50,0 50,0C41,0 26,17.5 17.5,30C9,42.5 0,62.5 0,62.5L100,62.5Z " /><path id="路径 1" fill-rule="evenodd" style="fill:#0D1117" transform="translate(8.953498241490792 22.19040699904586)  rotate(-33 50 31.249999999999996)" opacity="1" d="M73.47,43.49L80.89,27.68C80.35,26.93 79.8,26.16 79.23,25.39C78.14,23.91 76.99,22.4 75.79,20.9C73.45,17.96 70.95,15.03 68.4,12.34C61.85,5.4 55,0 50,0C41,0 26,17.5 17.5,30C9,42.5 0,62.5 0,62.5L100,62.5L91.85,45.92L73.47,43.49Z " /><path  id="路径 1" style="stroke:#0D1117; stroke-width:1; stroke-opacity:1; stroke-dasharray:0 0" transform="translate(8.953498241490792 22.19040699904586)  rotate(-33 50 31.249999999999996)" d="M73.47,43.49L80.89,27.68C80.35,26.93 79.8,26.16 79.23,25.39C78.14,23.91 76.99,22.4 75.79,20.9C73.45,17.96 70.95,15.03 68.4,12.34C61.85,5.4 55,0 50,0C41,0 26,17.5 17.5,30C9,42.5 0,62.5 0,62.5L100,62.5L91.85,45.92L73.47,43.49Z " /></g><g opacity="1" transform="translate(140 257)  rotate(0 89.635 90.07988268158037)"><path id="减去顶层" fill-rule="evenodd" style="fill:#0D1117" transform="translate(0 0)  rotate(0 89.635 90.07988268158037)" opacity="1" d="M38.98 180.09C38.98 180.09 13.66 182.9 1.84 152.51C-9.98 122.12 38.98 0 38.98 0L140.29 0C140.29 0 189.25 122.12 177.43 152.51C165.61 182.9 140.29 180.09 140.29 180.09L38.98 180.09Z M70.79 43.39L70.79 55.65C70.79 56.45 71.11 57.21 71.67 57.77C72.23 58.33 72.99 58.65 73.79 58.65L83.79 58.65C84.59 58.65 85.35 58.33 85.91 57.77C86.47 57.21 86.79 56.45 86.79 55.65L86.79 43.39C86.79 41.73 88.13 40.39 89.79 40.39L90.3 40.39C91.96 40.39 93.3 41.73 93.3 43.39L93.3 55.65C93.3 56.45 93.62 57.21 94.18 57.77C94.74 58.33 95.5 58.65 96.3 58.65L106.31 58.65C107.11 58.65 107.87 58.33 108.43 57.77C108.99 57.21 109.31 56.45 109.31 55.65L109.31 43.39C109.31 41.73 110.65 40.39 112.31 40.39L112.81 40.39C114.47 40.39 115.81 41.73 115.81 43.39L115.81 55.65C115.81 56.45 116.13 57.21 116.69 57.77C117.25 58.33 118.01 58.65 118.81 58.65L121.81 58.65C122.91 58.65 123.81 59.55 123.81 60.65L123.81 63.66C123.81 65.32 125.15 66.66 126.81 66.66L139.32 66.66C140.05 66.66 140.75 66.95 141.26 67.47C141.78 67.98 142.07 68.68 142.07 69.41C142.07 70.14 141.78 70.84 141.26 71.35C140.75 71.87 140.05 72.16 139.32 72.16L126.81 72.16C126.01 72.16 125.25 72.48 124.69 73.04C124.13 73.6 123.81 74.36 123.81 75.16L123.81 86.17C123.81 87.83 125.15 89.17 126.81 89.17L139.07 89.17C140.73 89.17 142.07 90.51 142.07 92.17L142.07 92.67C142.07 94.33 140.73 95.67 139.07 95.67L126.81 95.67C125.15 95.67 123.81 97.01 123.81 98.67L123.81 108.68C123.81 110.34 125.15 111.68 126.81 111.68L139.07 111.68C140.73 111.68 142.07 113.02 142.07 114.68L142.07 115.18C142.07 116.84 140.73 118.18 139.07 118.18L126.81 118.18C125.15 118.18 123.81 119.52 123.81 121.18L123.81 124.18C123.81 125.28 122.91 126.18 121.81 126.18L118.81 126.18C117.15 126.18 115.81 127.52 115.81 129.18L115.81 141C115.81 142.66 114.47 144 112.81 144L112.31 144C110.65 144 109.31 142.66 109.31 141L109.31 129.18C109.31 127.52 107.97 126.18 106.31 126.18L96.3 126.18C94.64 126.18 93.3 127.52 93.3 129.18L93.3 141C93.3 142.66 91.96 144 90.3 144L89.79 144C88.13 144 86.79 142.66 86.79 141L86.79 129.18C86.79 127.52 85.45 126.18 83.79 126.18L73.79 126.18C72.13 126.18 70.79 127.52 70.79 129.18L70.79 141C70.79 142.66 69.45 144 67.79 144L67.28 144C65.62 144 64.28 142.66 64.28 141L64.28 129.18C64.28 127.52 62.94 126.18 61.28 126.18L58.28 126.18C57.18 126.18 56.28 125.28 56.28 124.18L56.28 121.18C56.28 120.38 55.96 119.62 55.4 119.06C54.84 118.5 54.08 118.18 53.28 118.18L41 118.18C39.34 118.18 38 116.84 38 115.18L38 114.68C38 113.02 39.34 111.68 41 111.68L53.28 111.68C54.08 111.68 54.84 111.36 55.4 110.8C55.96 110.24 56.28 109.48 56.28 108.68L56.28 98.67C56.28 97.87 55.96 97.11 55.4 96.55C54.84 95.99 54.08 95.67 53.28 95.67L41 95.67C39.34 95.67 38 94.33 38 92.67L38 92.17C38 90.51 39.34 89.17 41 89.17L53.28 89.17C54.08 89.17 54.84 88.85 55.4 88.29C55.96 87.73 56.28 86.97 56.28 86.17L56.28 76.16C56.28 75.36 55.96 74.6 55.4 74.04C54.84 73.48 54.08 73.16 53.28 73.16L41 73.16C40.2 73.16 39.44 72.84 38.88 72.28C38.32 71.72 38 70.96 38 70.16L38 69.66C38 68 39.34 66.66 41 66.66L53.28 66.66C54.08 66.66 54.84 66.34 55.4 65.78C55.96 65.22 56.28 64.46 56.28 63.66L56.28 60.65C56.28 59.55 57.18 58.65 58.28 58.65L61.28 58.65C62.08 58.65 62.84 58.33 63.4 57.77C63.96 57.21 64.28 56.45 64.28 55.65L64.28 43.39C64.28 41.73 65.62 40.39 67.28 40.39L67.79 40.39C69.45 40.39 70.79 41.73 70.79 43.39Z " /><path id="路径 5" fill-rule="evenodd" style="fill:#0D1117" transform="translate(70.79 72.03)  rotate(0 19.26 19.260000000000005)" opacity="1" d="M38.52,38.52L38.52,0L0,0L0,38.52L38.52,38.52Z " /></g><g opacity="1" transform="translate(318 271)  rotate(0 58.5 69.5)"><path  id="圆形 1" style="stroke:#0D1117; stroke-width:14; stroke-opacity:1; stroke-dasharray:0 0" transform="translate(0 91)  rotate(0 24 24)" d="M24,0C10.75,0 0,10.75 0,24C0,37.25 10.75,48 24,48C37.25,48 48,37.25 48,24C48,10.75 37.25,0 24,0Z " /><path  id="圆形 1" style="stroke:#0D1117; stroke-width:14; stroke-opacity:1; stroke-dasharray:0 0" transform="translate(69 57)  rotate(0 24 24)" d="M24,0C10.75,0 0,10.75 0,24C0,37.25 10.75,48 24,48C37.25,48 48,37.25 48,24C48,10.75 37.25,0 24,0Z " /><path  id="圆形 1" style="stroke:#0D1117; stroke-width:14; stroke-opacity:1; stroke-dasharray:0 0" transform="translate(16 0)  rotate(0 24 24)" d="M24,0C10.75,0 0,10.75 0,24C0,37.25 10.75,48 24,48C37.25,48 48,37.25 48,24C48,10.75 37.25,0 24,0Z " /><path  id="直线 1" style="stroke:#0D1117; stroke-width:18; stroke-opacity:1; stroke-dasharray:0 0" transform="translate(48.540435139059724 93)  rotate(0 10.229782430470138 5.218878536587695)" d="M0,10.44L20.46,0 " /><path  id="直线 1" style="stroke:#0D1117; stroke-width:18; stroke-opacity:1; stroke-dasharray:0 0" transform="translate(58.08 44.75)  rotate(0 7.919887932850151 8.747878321690042)" d="M0,0L15.84,17.5 " /></g></g></svg>